<svg width="200" height="100" viewBox="0 0 200 100" fill="none" xmlns="http://www.w3.org/2000/svg">
<path d="M82.2891 0.223389H28.5431C23.0604 0.521342 10.7513 4.46922 5.37668 17.8771C-0.878228 31.5085 0.048411 42.9052 0.048411 42.9052C0.048411 54.7489 4.3728 66.7415 6.76666 70.8383C11.9559 79.7769 20.5323 87.2258 24.1718 89.8329C51.8104 108.246 83.3629 97.5052 95.6842 89.8329C102.549 84.6043 113.863 74.4961 129.78 56.9835C132.56 53.4081 136.452 44.6929 129.78 38.4359C129.78 38.7935 108.622 18.92 98.0422 8.93853C94.3356 6.03348 85.9957 0.223389 82.2891 0.223389Z" fill="#1A483D"/>
<path d="M117.711 99.7766L171.457 99.7766C176.94 99.4787 189.249 95.5308 194.623 82.1229C200.878 68.4915 199.952 57.0948 199.952 57.0948C199.952 45.2511 195.627 33.2585 193.233 29.1617C188.044 20.2231 179.468 12.7742 175.828 10.1671C148.19 -8.24639 116.637 2.49483 104.316 10.1671C97.4506 15.3957 86.1366 25.5039 70.2198 43.0165C67.4399 46.5919 63.5479 55.3071 70.2198 61.5641C70.2198 61.2065 91.3784 81.08 101.958 91.0615C105.664 93.9665 114.004 99.7766 117.711 99.7766Z" fill="#7EC7B5" fill-opacity="0.83"/>
</svg>
