<svg width="206" height="32" viewBox="0 0 206 32" fill="none" xmlns="http://www.w3.org/2000/svg">
<path d="M26.3325 0.0715332H9.13378C7.37931 0.166878 3.44041 1.4302 1.72054 5.72073C-0.281033 10.0828 0.0154915 13.7297 0.0154915 13.7297C0.0154915 17.5197 1.3993 21.3573 2.16533 22.6683C3.8259 25.5287 6.57033 27.9123 7.73498 28.7466C16.5793 34.6389 26.6761 31.2017 30.6189 28.7466C32.8158 27.0734 36.4363 23.8388 41.5296 18.2348C42.4192 17.0906 43.6647 14.3018 41.5296 12.2995C41.5296 12.414 34.7589 6.05444 31.3735 2.86038C30.1874 1.93076 27.5186 0.0715332 26.3325 0.0715332Z" fill="#1A483D"/>
<path d="M37.6675 31.9285L54.8662 31.9285C56.6207 31.8331 60.5596 30.5698 62.2795 26.2793C64.281 21.9172 63.9845 18.2703 63.9845 18.2703C63.9845 14.4803 62.6007 10.6427 61.8347 9.33168C60.1741 6.47133 57.4297 4.0877 56.265 3.25343C47.4207 -2.63889 37.3239 0.798298 33.3811 3.25343C31.1842 4.92656 27.5637 8.16122 22.4704 13.7652C21.5808 14.9094 20.3353 17.6982 22.4704 19.7005C22.4704 19.586 29.2411 25.9456 32.6265 29.1396C33.8126 30.0692 36.4814 31.9285 37.6675 31.9285Z" fill="#7EC7B5" fill-opacity="0.83"/>
<path d="M82.2953 9.94403C83.565 9.94403 84.6641 10.1557 85.5926 10.5789C86.5346 11.0022 87.2583 11.6029 87.7634 12.3811C88.2686 13.1594 88.5212 14.081 88.5212 15.1459C88.5212 16.1973 88.2686 17.1189 87.7634 17.9107C87.2583 18.689 86.5346 19.2897 85.5926 19.713C84.6641 20.1226 83.565 20.3274 82.2953 20.3274H79.4076V24.28H76.0898V9.94403H82.2953ZM82.111 17.624C83.1077 17.624 83.8654 17.4124 84.3842 16.9891C84.9031 16.5522 85.1625 15.9378 85.1625 15.1459C85.1625 14.3404 84.9031 13.726 84.3842 13.3027C83.8654 12.8658 83.1077 12.6474 82.111 12.6474H79.4076V17.624H82.111ZM96.1946 21.8839C96.7681 21.8839 97.2733 21.8019 97.7102 21.6381C98.1607 21.4606 98.5771 21.1875 98.9594 20.8189L100.659 22.6621C99.6216 23.8499 98.1061 24.4439 96.1127 24.4439C94.8703 24.4439 93.7712 24.2049 92.8154 23.7271C91.8597 23.2355 91.1224 22.5597 90.6036 21.6995C90.0848 20.8394 89.8254 19.8632 89.8254 18.7709C89.8254 17.6923 90.0779 16.7229 90.5831 15.8627C91.1019 14.9889 91.8051 14.3131 92.6926 13.8352C93.5937 13.3437 94.604 13.0979 95.7236 13.0979C96.7749 13.0979 97.7306 13.3232 98.5908 13.7738C99.451 14.2107 100.134 14.8524 100.639 15.6989C101.158 16.5318 101.417 17.5216 101.417 18.6685L93.266 20.2455C93.4981 20.7916 93.8599 21.2012 94.3514 21.4743C94.8566 21.7473 95.471 21.8839 96.1946 21.8839ZM95.7236 15.5146C94.9181 15.5146 94.2627 15.774 93.7575 16.2928C93.2523 16.8117 92.9861 17.5285 92.9588 18.4432L98.3246 17.3987C98.1744 16.8253 97.8672 16.3679 97.403 16.0266C96.9387 15.6853 96.379 15.5146 95.7236 15.5146ZM110.262 13.0979C111.627 13.0979 112.726 13.5075 113.559 14.3267C114.405 15.1459 114.829 16.3611 114.829 17.9722V24.28H111.634V18.4637C111.634 17.5899 111.443 16.9414 111.06 16.5181C110.678 16.0812 110.125 15.8627 109.401 15.8627C108.596 15.8627 107.954 16.1153 107.476 16.6205C106.998 17.112 106.759 17.8493 106.759 18.8323V24.28H103.565V13.2618H106.616V14.552C107.039 14.0878 107.565 13.7328 108.193 13.4871C108.821 13.2277 109.511 13.0979 110.262 13.0979ZM124.422 13.0979C125.787 13.0979 126.886 13.5075 127.719 14.3267C128.565 15.1459 128.989 16.3611 128.989 17.9722V24.28H125.794V18.4637C125.794 17.5899 125.603 16.9414 125.22 16.5181C124.838 16.0812 124.285 15.8627 123.561 15.8627C122.756 15.8627 122.114 16.1153 121.636 16.6205C121.158 17.112 120.919 17.8493 120.919 18.8323V24.28H117.725V13.2618H120.776V14.552C121.199 14.0878 121.725 13.7328 122.353 13.4871C122.981 13.2277 123.671 13.0979 124.422 13.0979ZM142.985 13.2618V22.4368C142.985 24.4575 142.473 25.9594 141.449 26.9424C140.425 27.9255 138.937 28.417 136.984 28.417C135.946 28.417 134.963 28.2873 134.035 28.0279C133.12 27.7685 132.349 27.393 131.721 26.9015L132.99 24.6077C133.455 24.99 134.021 25.2904 134.69 25.5088C135.359 25.7273 136.035 25.8365 136.718 25.8365C137.783 25.8365 138.561 25.5907 139.053 25.0992C139.544 24.6077 139.79 23.8568 139.79 22.8464V22.4778C139.38 22.8874 138.896 23.2014 138.336 23.4199C137.776 23.6383 137.175 23.7475 136.534 23.7475C135.086 23.7475 133.939 23.3379 133.093 22.5187C132.246 21.6859 131.823 20.4434 131.823 18.7914V13.2618H135.018V18.3203C135.018 20.1089 135.762 21.0032 137.25 21.0032C138.015 21.0032 138.629 20.7575 139.094 20.2659C139.558 19.7608 139.79 19.0167 139.79 18.0336V13.2618H142.985ZM163.373 13.2618V19.3443C163.373 20.9691 162.929 22.2252 162.042 23.1127C161.154 24.0001 159.891 24.4439 158.253 24.4439C157.461 24.4439 156.758 24.321 156.144 24.0752C155.543 23.8295 155.038 23.4335 154.628 22.8874C154.218 23.4335 153.713 23.8295 153.113 24.0752C152.512 24.321 151.802 24.4439 150.983 24.4439C149.331 24.4439 148.068 24.0001 147.194 23.1127C146.32 22.2252 145.883 20.9691 145.883 19.3443V13.2618H149.078V19.0986C149.078 20.0134 149.235 20.6892 149.549 21.1261C149.863 21.5494 150.355 21.761 151.024 21.761C151.706 21.761 152.211 21.5425 152.539 21.1056C152.867 20.6687 153.031 19.9997 153.031 19.0986V13.2618H156.226V19.0986C156.226 19.9997 156.389 20.6687 156.717 21.1056C157.045 21.5425 157.55 21.761 158.233 21.761C158.902 21.761 159.393 21.5494 159.707 21.1261C160.021 20.6892 160.178 20.0134 160.178 19.0986V13.2618H163.373ZM166.245 13.2618H169.439V24.28H166.245V13.2618ZM167.842 11.7258C167.255 11.7258 166.777 11.5551 166.408 11.2138C166.04 10.8725 165.855 10.4492 165.855 9.94403C165.855 9.43886 166.04 9.0156 166.408 8.67427C166.777 8.33294 167.255 8.16227 167.842 8.16227C168.429 8.16227 168.907 8.32611 169.276 8.65379C169.644 8.98147 169.829 9.39107 169.829 9.88259C169.829 10.4151 169.644 10.8588 169.276 11.2138C168.907 11.5551 168.429 11.7258 167.842 11.7258ZM176.111 24.4439C175.197 24.4439 174.302 24.3346 173.429 24.1162C172.555 23.8841 171.858 23.5974 171.34 23.256L172.405 20.9623C172.896 21.2763 173.49 21.5357 174.186 21.7405C174.883 21.9317 175.565 22.0272 176.234 22.0272C177.586 22.0272 178.262 21.6927 178.262 21.0237C178.262 20.7097 178.078 20.4844 177.709 20.3479C177.34 20.2113 176.774 20.0953 176.009 19.9997C175.108 19.8632 174.364 19.7062 173.777 19.5287C173.19 19.3512 172.678 19.0371 172.241 18.5866C171.817 18.136 171.606 17.4943 171.606 16.6615C171.606 15.9651 171.804 15.3507 172.2 14.8183C172.609 14.2721 173.196 13.8489 173.961 13.5485C174.739 13.2481 175.654 13.0979 176.705 13.0979C177.484 13.0979 178.255 13.1867 179.02 13.3642C179.798 13.528 180.44 13.7601 180.945 14.0605L179.88 16.3338C178.91 15.7877 177.852 15.5146 176.705 15.5146C176.023 15.5146 175.511 15.6102 175.169 15.8013C174.828 15.9925 174.657 16.2382 174.657 16.5386C174.657 16.8799 174.842 17.1189 175.21 17.2554C175.579 17.3919 176.166 17.5216 176.972 17.6445C177.873 17.7947 178.61 17.9585 179.183 18.136C179.757 18.2999 180.255 18.6071 180.678 19.0576C181.102 19.5082 181.313 20.1362 181.313 20.9418C181.313 21.6245 181.109 22.232 180.699 22.7645C180.289 23.297 179.689 23.7134 178.897 24.0138C178.118 24.3005 177.19 24.4439 176.111 24.4439ZM188.835 21.8839C189.408 21.8839 189.913 21.8019 190.35 21.6381C190.801 21.4606 191.217 21.1875 191.599 20.8189L193.299 22.6621C192.262 23.8499 190.746 24.4439 188.753 24.4439C187.51 24.4439 186.411 24.2049 185.455 23.7271C184.5 23.2355 183.762 22.5597 183.244 21.6995C182.725 20.8394 182.465 19.8632 182.465 18.7709C182.465 17.6923 182.718 16.7229 183.223 15.8627C183.742 14.9889 184.445 14.3131 185.333 13.8352C186.234 13.3437 187.244 13.0979 188.364 13.0979C189.415 13.0979 190.371 13.3232 191.231 13.7738C192.091 14.2107 192.774 14.8524 193.279 15.6989C193.798 16.5318 194.057 17.5216 194.057 18.6685L185.906 20.2455C186.138 20.7916 186.5 21.2012 186.991 21.4743C187.497 21.7473 188.111 21.8839 188.835 21.8839ZM188.364 15.5146C187.558 15.5146 186.903 15.774 186.398 16.2928C185.892 16.8117 185.626 17.5285 185.599 18.4432L190.965 17.3987C190.814 16.8253 190.507 16.3679 190.043 16.0266C189.579 15.6853 189.019 15.5146 188.364 15.5146Z" fill="white"/>
</svg>
