<svg width="212" height="33" viewBox="0 0 212 33" fill="none" xmlns="http://www.w3.org/2000/svg">
<path d="M27.1554 0.0737305H9.41921C7.60992 0.172055 3.54792 1.47486 1.7743 5.89946C-0.289815 10.3978 0.0159756 14.1587 0.0159756 14.1587C0.0159756 18.0671 1.44302 22.0247 2.233 23.3767C3.94546 26.3264 6.77566 28.7845 7.9767 29.6449C17.0974 35.7213 27.5097 32.1767 31.5758 29.6449C33.8413 27.9194 37.5749 24.5837 42.8274 18.8046C43.7448 17.6247 45.0292 14.7487 42.8274 12.6839C42.8274 12.8019 35.8451 6.2436 32.3539 2.94973C31.1308 1.99106 28.3786 0.0737305 27.1554 0.0737305Z" fill="#1A483D"/>
<path d="M38.8446 32.9263H56.5808C58.3901 32.8279 62.4521 31.5251 64.2257 27.1005C66.2898 22.6022 65.984 18.8413 65.984 18.8413C65.984 14.9329 64.557 10.9753 63.767 9.62333C62.0545 6.6736 59.2243 4.21548 58.0233 3.35514C48.9026 -2.72132 38.4903 0.82328 34.4242 3.35514C32.1587 5.08055 28.4251 8.41629 23.1726 14.1954C22.2552 15.3753 20.9708 18.2513 23.1726 20.3161C23.1726 20.1981 30.1549 26.7564 33.6461 30.0503C34.8692 31.0089 37.6214 32.9263 38.8446 32.9263Z" fill="#7EC7B5" fill-opacity="0.83"/>
<path d="M84.867 9.53595C86.1765 9.53595 87.3099 9.75419 88.2673 10.1907C89.2389 10.6271 89.9851 11.2467 90.5061 12.0492C91.027 12.8518 91.2875 13.8022 91.2875 14.9004C91.2875 15.9846 91.027 16.935 90.5061 17.7516C89.9851 18.5542 89.2389 19.1737 88.2673 19.6102C87.3099 20.0326 86.1765 20.2438 84.867 20.2438H81.8891V24.3199H78.4677V9.53595H84.867ZM84.6769 17.4559C85.7048 17.4559 86.4862 17.2377 87.0213 16.8012C87.5563 16.3507 87.8238 15.7171 87.8238 14.9004C87.8238 14.0697 87.5563 13.4361 87.0213 12.9996C86.4862 12.5491 85.7048 12.3238 84.6769 12.3238H81.8891V17.4559H84.6769ZM99.2007 21.8489C99.7921 21.8489 100.313 21.7644 100.764 21.5955C101.228 21.4124 101.658 21.1308 102.052 20.7507L103.805 22.6515C102.735 23.8764 101.172 24.4889 99.1162 24.4889C97.835 24.4889 96.7015 24.2425 95.7159 23.7497C94.7303 23.2428 93.97 22.5459 93.435 21.6588C92.8999 20.7718 92.6324 19.7651 92.6324 18.6387C92.6324 17.5263 92.8929 16.5267 93.4138 15.6396C93.9489 14.7385 94.674 14.0415 95.5892 13.5487C96.5185 13.0419 97.5604 12.7884 98.715 12.7884C99.7991 12.7884 100.785 13.0207 101.672 13.4854C102.559 13.9359 103.263 14.5977 103.784 15.4707C104.319 16.3295 104.586 17.3503 104.586 18.5331L96.1806 20.1593C96.4199 20.7225 96.793 21.1449 97.2999 21.4265C97.8209 21.7081 98.4545 21.8489 99.2007 21.8489ZM98.715 15.2806C97.8842 15.2806 97.2084 15.5481 96.6874 16.0831C96.1665 16.6182 95.8919 17.3574 95.8638 18.3007L101.397 17.2236C101.242 16.6323 100.926 16.1606 100.447 15.8086C99.9681 15.4566 99.3908 15.2806 98.715 15.2806ZM113.707 12.7884C115.115 12.7884 116.249 13.2108 117.108 14.0556C117.98 14.9004 118.417 16.1535 118.417 17.815V24.3199H115.122V18.3219C115.122 17.4207 114.925 16.7519 114.531 16.3155C114.137 15.8649 113.566 15.6396 112.82 15.6396C111.989 15.6396 111.328 15.9001 110.835 16.4211C110.342 16.9279 110.096 17.6883 110.096 18.702V24.3199H106.801V12.9574H109.948V14.2879C110.384 13.8092 110.926 13.4431 111.574 13.1897C112.222 12.9222 112.933 12.7884 113.707 12.7884ZM128.31 12.7884C129.718 12.7884 130.851 13.2108 131.71 14.0556C132.583 14.9004 133.019 16.1535 133.019 17.815V24.3199H129.725V18.3219C129.725 17.4207 129.528 16.7519 129.133 16.3155C128.739 15.8649 128.169 15.6396 127.423 15.6396C126.592 15.6396 125.93 15.9001 125.437 16.4211C124.945 16.9279 124.698 17.6883 124.698 18.702V24.3199H121.403V12.9574H124.55V14.2879C124.987 13.8092 125.529 13.4431 126.177 13.1897C126.824 12.9222 127.535 12.7884 128.31 12.7884ZM147.453 12.9574V22.4191C147.453 24.503 146.925 26.0518 145.869 27.0655C144.813 28.0793 143.278 28.5862 141.265 28.5862C140.195 28.5862 139.181 28.4524 138.224 28.1849C137.28 27.9174 136.485 27.5302 135.837 27.0233L137.146 24.6579C137.625 25.0521 138.209 25.3619 138.899 25.5871C139.589 25.8124 140.286 25.9251 140.99 25.9251C142.089 25.9251 142.891 25.6716 143.398 25.1647C143.905 24.6579 144.158 23.8835 144.158 22.8415V22.4614C143.736 22.8838 143.236 23.2076 142.659 23.4329C142.081 23.6582 141.462 23.7708 140.8 23.7708C139.308 23.7708 138.125 23.3484 137.252 22.5036C136.379 21.6447 135.943 20.3635 135.943 18.6598V12.9574H139.237V18.174C139.237 20.0185 140.005 20.9407 141.539 20.9407C142.328 20.9407 142.961 20.6873 143.44 20.1804C143.919 19.6595 144.158 18.8921 144.158 17.8783V12.9574H147.453ZM168.478 12.9574V19.23C168.478 20.9055 168.021 22.2009 167.106 23.1161C166.19 24.0313 164.888 24.4889 163.198 24.4889C162.382 24.4889 161.657 24.3622 161.023 24.1087C160.404 23.8553 159.883 23.447 159.46 22.8838C159.038 23.447 158.517 23.8553 157.897 24.1087C157.278 24.3622 156.546 24.4889 155.701 24.4889C153.997 24.4889 152.695 24.0313 151.794 23.1161C150.893 22.2009 150.442 20.9055 150.442 19.23V12.9574H153.737V18.9766C153.737 19.9199 153.899 20.6169 154.222 21.0675C154.546 21.5039 155.053 21.7222 155.743 21.7222C156.447 21.7222 156.968 21.4969 157.306 21.0463C157.644 20.5958 157.813 19.9059 157.813 18.9766V12.9574H161.108V18.9766C161.108 19.9059 161.277 20.5958 161.614 21.0463C161.952 21.4969 162.473 21.7222 163.177 21.7222C163.867 21.7222 164.374 21.5039 164.698 21.0675C165.022 20.6169 165.184 19.9199 165.184 18.9766V12.9574H168.478ZM171.44 12.9574H174.734V24.3199H171.44V12.9574ZM173.087 11.3734C172.482 11.3734 171.989 11.1974 171.609 10.8454C171.228 10.4934 171.038 10.0569 171.038 9.53595C171.038 9.01499 171.228 8.57851 171.609 8.22651C171.989 7.87451 172.482 7.69851 173.087 7.69851C173.692 7.69851 174.185 7.86747 174.565 8.20539C174.946 8.54331 175.136 8.96571 175.136 9.47259C175.136 10.0217 174.946 10.4793 174.565 10.8454C174.185 11.1974 173.692 11.3734 173.087 11.3734ZM181.615 24.4889C180.672 24.4889 179.749 24.3763 178.848 24.151C177.947 23.9116 177.229 23.6159 176.694 23.2639L177.792 20.8985C178.299 21.2223 178.912 21.4899 179.63 21.7011C180.348 21.8982 181.052 21.9967 181.742 21.9967C183.136 21.9967 183.833 21.6518 183.833 20.9619C183.833 20.638 183.642 20.4057 183.262 20.2649C182.882 20.1241 182.298 20.0044 181.509 19.9059C180.58 19.7651 179.813 19.6031 179.207 19.4201C178.602 19.2371 178.074 18.9132 177.623 18.4486C177.187 17.9839 176.969 17.3222 176.969 16.4633C176.969 15.7452 177.173 15.1116 177.581 14.5625C178.003 13.9993 178.609 13.5628 179.397 13.2531C180.2 12.9433 181.143 12.7884 182.227 12.7884C183.03 12.7884 183.825 12.8799 184.614 13.063C185.417 13.2319 186.078 13.4713 186.599 13.7811L185.501 16.1254C184.501 15.5622 183.41 15.2806 182.227 15.2806C181.523 15.2806 180.995 15.3791 180.643 15.5763C180.291 15.7734 180.115 16.0268 180.115 16.3366C180.115 16.6886 180.305 16.935 180.686 17.0758C181.066 17.2166 181.671 17.3503 182.502 17.4771C183.431 17.6319 184.192 17.8009 184.783 17.9839C185.374 18.1529 185.888 18.4697 186.325 18.9343C186.761 19.399 186.979 20.0467 186.979 20.8774C186.979 21.5814 186.768 22.2079 186.346 22.7571C185.923 23.3062 185.304 23.7356 184.487 24.0454C183.685 24.3411 182.727 24.4889 181.615 24.4889ZM194.736 21.8489C195.327 21.8489 195.848 21.7644 196.299 21.5955C196.763 21.4124 197.193 21.1308 197.587 20.7507L199.34 22.6515C198.27 23.8764 196.707 24.4889 194.651 24.4889C193.37 24.4889 192.237 24.2425 191.251 23.7497C190.265 23.2428 189.505 22.5459 188.97 21.6588C188.435 20.7718 188.167 19.7651 188.167 18.6387C188.167 17.5263 188.428 16.5267 188.949 15.6396C189.484 14.7385 190.209 14.0415 191.124 13.5487C192.053 13.0419 193.095 12.7884 194.25 12.7884C195.334 12.7884 196.32 13.0207 197.207 13.4854C198.094 13.9359 198.798 14.5977 199.319 15.4707C199.854 16.3295 200.121 17.3503 200.121 18.5331L191.716 20.1593C191.955 20.7225 192.328 21.1449 192.835 21.4265C193.356 21.7081 193.989 21.8489 194.736 21.8489ZM194.25 15.2806C193.419 15.2806 192.743 15.5481 192.222 16.0831C191.701 16.6182 191.427 17.3574 191.399 18.3007L196.932 17.2236C196.777 16.6323 196.461 16.1606 195.982 15.8086C195.503 15.4566 194.926 15.2806 194.25 15.2806Z" fill="#21312E"/>
</svg>
