<svg width="66" height="33" viewBox="0 0 66 33" fill="none" xmlns="http://www.w3.org/2000/svg">
<path d="M27.1554 0.0737305H9.41921C7.60992 0.172055 3.54792 1.47486 1.7743 5.89946C-0.289815 10.3978 0.0159756 14.1587 0.0159756 14.1587C0.0159756 18.0671 1.44302 22.0247 2.233 23.3767C3.94546 26.3264 6.77566 28.7845 7.9767 29.6449C17.0974 35.7213 27.5097 32.1767 31.5758 29.6449C33.8413 27.9194 37.5749 24.5837 42.8274 18.8046C43.7448 17.6247 45.0292 14.7487 42.8274 12.6839C42.8274 12.8019 35.8451 6.2436 32.3539 2.94973C31.1308 1.99106 28.3786 0.0737305 27.1554 0.0737305Z" fill="#1A483D"/>
<path d="M38.8446 32.9263H56.5808C58.3901 32.8279 62.4521 31.5251 64.2257 27.1005C66.2898 22.6022 65.984 18.8413 65.984 18.8413C65.984 14.9329 64.557 10.9753 63.767 9.62333C62.0545 6.6736 59.2243 4.21548 58.0233 3.35514C48.9026 -2.72132 38.4903 0.82328 34.4242 3.35514C32.1587 5.08055 28.4251 8.41629 23.1726 14.1954C22.2552 15.3753 20.9708 18.2513 23.1726 20.3161C23.1726 20.1981 30.1549 26.7564 33.6461 30.0503C34.8692 31.0089 37.6214 32.9263 38.8446 32.9263Z" fill="#7EC7B5" fill-opacity="0.83"/>
</svg>
